<!DOCTYPE svg PUBLIC "-//W3C//DTD SVG 20010904//EN" "http://www.w3.org/TR/2001/REC-SVG-20010904/DTD/svg10.dtd">
<svg version="1.0" xmlns="http://www.w3.org/2000/svg" width="408px" height="717px" viewBox="0 0 4080 7170" preserveAspectRatio="xMidYMid meet">
<g id="layer101" fill="#000000" stroke="none">
 <path d="M1573 6614 c-109 -22 -170 -69 -219 -171 l-29 -58 -3 -1556 -2 -1556 -30 -28 c-41 -39 -89 -39 -130 0 l-30 29 0 649 0 650 -89 -6 c-125 -9 -192 -36 -262 -106 -38 -38 -63 -75 -80 -116 l-24 -60 -3 -809 c-3 -880 -4 -854 53 -966 31 -60 107 -135 168 -166 105 -54 105 -54 1147 -54 1042 0 1043 0 1146 53 112 57 197 182 215 316 6 41 9 386 7 848 -2 639 -5 783 -17 808 -8 17 -20 44 -27 61 -22 51 -89 118 -146 147 -57 29 -141 47 -220 47 l-48 0 0 -648 0 -648 -30 -29 c-41 -39 -89 -39 -130 0 l-30 29 0 1510 c0 863 -4 1538 -10 1574 -28 199 -224 313 -415 241 -69 -26 -137 -89 -168 -157 -22 -47 -22 -51 -27 -899 l-5 -853 -27 -27 c-39 -38 -97 -38 -136 0 l-27 27 -5 853 c-5 787 -6 855 -23 891 -61 135 -202 209 -344 180z"/>
 <path d="M1875 1846 c-152 -32 -312 -115 -422 -218 -115 -109 -213 -279 -248 -428 -25 -105 -22 -298 5 -403 62 -244 256 -474 472 -563 35 -14 70 -30 79 -34 95 -49 345 -59 489 -20 307 82 536 314 616 625 20 77 23 110 20 225 -2 116 -7 147 -31 220 -50 154 -114 257 -226 367 -127 124 -251 190 -432 228 -82 18 -239 18 -322 1z"/>
 </g>

</svg>